Coordinates
version=1
nRows=11
nColumns=63
inDegrees=yes

Units are S.I. units (second, meters, Newtons, ...)
If the header above contains a line with 'inDegrees', this indicates whether rotational values are in degrees (yes) or radians (no).

endheader
time	pelvis_tilt	pelvis_list	pelvis_rotation	pelvis_tx	pelvis_ty	pelvis_tz	hip_flexion_r	hip_adduction_r	hip_rotation_r	knee_angle_r	knee_angle_r_beta	ankle_angle_r	subtalar_angle_r	mtp_angle_r	hip_flexion_l	hip_adduction_l	hip_rotation_l	knee_angle_l	knee_angle_l_beta	ankle_angle_l	subtalar_angle_l	mtp_angle_l	L5_S1_Flex_Ext	L5_S1_Lat_Bending	L5_S1_axial_rotation	L4_L5_Flex_Ext	L4_L5_Lat_Bending	L4_L5_axial_rotation	L3_L4_Flex_Ext	L3_L4_Lat_Bending	L3_L4_axial_rotation	L2_L3_Flex_Ext	L2_L3_Lat_Bending	L2_L3_axial_rotation	L1_L2_Flex_Ext	L1_L2_Lat_Bending	L1_L2_axial_rotation	L1_T12_Flex_Ext	L1_T12_Lat_Bending	L1_T12_axial_rotation	Abs_r3	Abs_r2	Abs_r1	Abs_t1	Abs_t2	neck_flexion	neck_bending	neck_rotation	arm_flex_r	arm_add_r	arm_rot_r	elbow_flex_r	pro_sup_r	wrist_flex_r	wrist_dev_r	arm_flex_l	arm_add_l	arm_rot_l	elbow_flex_l	pro_sup_l	wrist_flex_l	wrist_dev_l
6.933333	-0.277178	-3.830363	108.336195	0.269047	0.767767	0.883746	-2.107160	1.435562	-22.697469	4.607359	0.080414	12.748397	15.075332	0.000000	2.103665	-0.648371	1.933693	7.193789	0.125555	16.354607	7.593246	0.000000	-0.381725	0.069748	-0.658432	-0.708902	0.092765	-0.699584	-0.627137	0.169586	-0.699584	-0.436274	0.169586	-0.576128	-0.354470	0.142230	-0.534976	-0.218118	0.108040	-0.493824	-2.726626	0.789005	-3.661999	0.000000	0.000000	0.367778	-4.918135	8.985996	101.790699	-9.584226	87.253428	93.658576	88.732098	1.366114	13.558346	6.802314	-12.984339	-11.427590	117.402968	85.016299	-13.374895	9.911683
6.950000	-0.132969	-3.996889	108.253452	0.268844	0.767334	0.883760	-1.860485	1.520540	-22.067350	4.522630	0.078935	12.777155	14.389122	0.000000	2.298373	-0.716138	1.918111	7.199913	0.125662	16.376107	7.466601	0.000000	-0.379640	0.079136	-0.769195	-0.705029	0.105251	-0.817270	-0.623711	0.192411	-0.817270	-0.433891	0.192411	-0.673046	-0.352534	0.161374	-0.624971	-0.216926	0.122581	-0.576897	-2.711730	0.895199	-4.278034	0.000000	0.000000	0.496528	-5.160571	9.312440	103.992070	-8.951316	88.952204	94.335771	88.701498	-0.703767	11.924432	6.406787	-13.031363	-12.229175	117.827437	84.218070	-13.809035	9.730945
6.966667	0.033763	-4.140787	108.213187	0.268593	0.766924	0.883690	-1.640626	1.653807	-21.227357	4.380012	0.076446	12.789813	13.409048	0.000000	2.474785	-0.805588	2.113028	7.216775	0.125956	16.381163	7.115118	0.000000	-0.378676	0.091133	-0.884590	-0.703240	0.121208	-0.939877	-0.622127	0.221582	-0.939877	-0.432789	0.221582	-0.774016	-0.351639	0.185839	-0.718729	-0.216376	0.141166	-0.663443	-2.704848	1.030920	-4.919825	0.000000	0.000000	0.614289	-5.504703	9.532197	106.065970	-8.323304	90.457466	95.070079	88.663306	-2.589246	10.373462	5.984080	-13.044795	-13.028530	118.244295	83.295894	-14.229780	9.408420
6.983333	0.197324	-4.253966	108.182295	0.268380	0.766579	0.883538	-1.452991	1.802578	-20.324526	4.213927	0.073547	12.816639	12.379801	0.000000	2.604754	-0.902767	2.407916	7.221784	0.126044	16.362388	6.656076	0.000000	-0.379078	0.101757	-0.996370	-0.703985	0.135337	-1.058643	-0.622787	0.247412	-1.058643	-0.433248	0.247412	-0.871824	-0.352012	0.207503	-0.809550	-0.216605	0.157622	-0.747277	-2.707715	1.151098	-5.541510	0.000000	0.000000	0.666843	-5.882330	9.648650	107.943926	-7.724089	91.748641	95.851813	88.632865	-4.318744	9.080545	5.545340	-13.027584	-13.816266	118.640603	82.496735	-14.618506	8.934381
7.000000	0.364269	-4.324051	108.149120	0.268221	0.766304	0.883335	-1.310794	1.979570	-19.289781	4.022055	0.070198	12.830724	11.209271	0.000000	2.686014	-1.016283	2.806196	7.228998	0.126170	16.325898	6.061175	0.000000	-0.381851	0.112949	-1.101920	-0.709136	0.150222	-1.170790	-0.627344	0.274624	-1.170790	-0.436418	0.274624	-0.964180	-0.354587	0.230325	-0.895310	-0.218190	0.174958	-0.826440	-2.727526	1.277699	-6.128549	0.000000	0.000000	0.638450	-6.309975	9.714088	109.615808	-7.141900	92.842360	96.621660	88.608484	-5.806450	8.069767	5.090941	-12.949471	-14.624138	119.046554	81.918738	-14.911310	8.471581
7.016667	0.539428	-4.350488	108.151245	0.268039	0.766087	0.883134	-1.224516	2.192187	-18.124928	3.793111	0.066202	12.810218	9.846817	0.000000	2.739545	-1.162467	3.119024	7.262962	0.126763	16.337239	5.665094	0.000000	-0.386706	0.125629	-1.192186	-0.718153	0.167087	-1.266697	-0.635320	0.305455	-1.266697	-0.441967	0.305455	-1.043163	-0.359096	0.256184	-0.968651	-0.220964	0.194600	-0.894139	-2.762205	1.421145	-6.630580	0.000000	0.000000	0.542773	-6.772462	9.635754	111.120752	-6.662818	93.873369	97.443316	88.598389	-7.384069	7.511229	4.671829	-12.814317	-15.330059	119.413499	81.502100	-15.097644	7.944414
7.033333	0.699368	-4.342825	108.162969	0.267875	0.765925	0.882928	-1.180889	2.402715	-16.969841	3.567406	0.062263	12.809414	8.514395	0.000000	2.753791	-1.304109	3.484731	7.295568	0.127332	16.334686	5.224568	0.000000	-0.393173	0.137063	-1.265357	-0.730161	0.182294	-1.344442	-0.645943	0.333256	-1.344442	-0.449357	0.333256	-1.107187	-0.365100	0.279499	-1.028102	-0.224659	0.212311	-0.949018	-2.808393	1.550487	-7.037535	0.000000	0.000000	0.371658	-7.222655	9.475761	112.422441	-6.273724	94.796539	98.228366	88.590553	-8.774123	7.308491	4.267314	-12.648437	-15.956296	119.787173	81.325496	-15.190632	7.488147
7.050000	0.848495	-4.309609	108.193576	0.267697	0.765798	0.882749	-1.172706	2.608558	-15.915339	3.353610	0.058532	12.820396	7.316652	0.000000	2.746885	-1.445884	3.828235	7.334097	0.128004	16.343134	4.847755	0.000000	-0.400311	0.148380	-1.323582	-0.743418	0.197345	-1.406306	-0.657671	0.360771	-1.406306	-0.457515	0.360771	-1.158134	-0.371729	0.302576	-1.075410	-0.228738	0.229840	-0.992686	-2.859382	1.678502	-7.361365	0.000000	0.000000	0.158612	-7.682231	9.252288	113.541106	-5.961974	95.682268	98.910683	88.582297	-10.039700	7.240372	3.860332	-12.456080	-16.506622	120.186017	81.355972	-15.185768	7.142389
7.066667	0.978689	-4.263793	108.241079	0.267490	0.765696	0.882609	-1.187818	2.791857	-15.028410	3.169680	0.055321	12.847494	6.329450	0.000000	2.728283	-1.570753	4.180310	7.370309	0.128636	16.346157	4.477884	0.000000	-0.407477	0.158624	-1.369311	-0.756726	0.210970	-1.454893	-0.669444	0.385679	-1.454893	-0.465706	0.385679	-1.198147	-0.378383	0.323467	-1.112565	-0.232833	0.245709	-1.026983	-2.910569	1.794391	-7.615698	0.000000	0.000000	-0.070300	-8.122032	9.022022	114.451146	-5.705486	96.487907	99.431144	88.562548	-10.938250	7.261435	3.432938	-12.232108	-16.999673	120.636698	81.568464	-15.093786	6.940630
7.083333	1.082420	-4.215377	108.288614	0.267276	0.765610	0.882529	-1.216082	2.937464	-14.346117	3.029545	0.052876	12.883121	5.608928	0.000000	2.705820	-1.668225	4.512440	7.402595	0.129200	16.344507	4.126359	0.000000	-0.414269	0.166359	-1.401372	-0.769338	0.221258	-1.488958	-0.680602	0.404486	-1.488958	-0.473468	0.404486	-1.226200	-0.384690	0.339240	-1.138615	-0.236713	0.257691	-1.051029	-2.959080	1.881891	-7.794010	0.000000	0.000000	-0.297297	-8.499367	8.806125	115.135117	-5.485185	97.202079	99.702130	88.529409	-11.342336	7.178013	2.991714	-11.961767	-17.449606	121.146027	81.953640	-14.898350	6.897267
7.100000	1.154389	-4.171670	108.335571	0.267064	0.765544	0.882494	-1.254129	3.039425	-13.862464	2.936605	0.051253	12.902250	5.122032	0.000000	2.682894	-1.730772	4.824558	7.428164	0.129646	16.326142	3.784474	0.000000	-0.419710	0.170508	-1.420288	-0.779443	0.226776	-1.509056	-0.689541	0.414574	-1.509056	-0.479686	0.414574	-1.242752	-0.389742	0.347701	-1.153984	-0.239822	0.264118	-1.065216	-2.997943	1.928826	-7.899216	0.000000	0.000000	-0.522619	-8.821377	8.622712	115.544674	-5.296824	97.772426	99.717539	88.484450	-11.182945	7.113220	2.558859	-11.641773	-17.847425	121.699469	82.515614	-14.620156	7.015851
